<mxfile host="app.diagrams.net" modified="2024-03-18T15:08:03.621Z" agent="Mozilla/5.0 (X11; Ubuntu; Linux x86_64; rv:123.0) Gecko/20100101 Firefox/123.0" etag="SHWFlV1Nucni79X4cWMr" version="24.0.7" type="github">
  <diagram id="C5RBs43oDa-KdzZeNtuy" name="Page-1">
    <mxGraphModel dx="2049" dy="1091" grid="1" gridSize="10" guides="1" tooltips="1" connect="1" arrows="1" fold="1" page="1" pageScale="1" pageWidth="827" pageHeight="1169" math="0" shadow="0">
      <root>
        <mxCell id="WIyWlLk6GJQsqaUBKTNV-0" />
        <mxCell id="WIyWlLk6GJQsqaUBKTNV-1" parent="WIyWlLk6GJQsqaUBKTNV-0" />
        <mxCell id="kmN5Y0-LCo_o4AJHoNqN-1" style="edgeStyle=orthogonalEdgeStyle;rounded=0;orthogonalLoop=1;jettySize=auto;html=1;" edge="1" parent="WIyWlLk6GJQsqaUBKTNV-1" source="kmN5Y0-LCo_o4AJHoNqN-0" target="kmN5Y0-LCo_o4AJHoNqN-2">
          <mxGeometry relative="1" as="geometry">
            <mxPoint x="410" y="190" as="targetPoint" />
            <Array as="points">
              <mxPoint x="300" y="180" />
              <mxPoint x="300" y="180" />
            </Array>
          </mxGeometry>
        </mxCell>
        <mxCell id="kmN5Y0-LCo_o4AJHoNqN-0" value="&lt;div&gt;ONG/Instituição&lt;/div&gt;" style="rounded=0;whiteSpace=wrap;html=1;" vertex="1" parent="WIyWlLk6GJQsqaUBKTNV-1">
          <mxGeometry x="10" y="120" width="250" height="130" as="geometry" />
        </mxCell>
        <mxCell id="kmN5Y0-LCo_o4AJHoNqN-2" value="&lt;div&gt;Administrador&lt;/div&gt;" style="rounded=0;whiteSpace=wrap;html=1;" vertex="1" parent="WIyWlLk6GJQsqaUBKTNV-1">
          <mxGeometry x="510" y="120" width="260" height="120" as="geometry" />
        </mxCell>
        <mxCell id="kmN5Y0-LCo_o4AJHoNqN-4" style="edgeStyle=orthogonalEdgeStyle;rounded=0;orthogonalLoop=1;jettySize=auto;html=1;exitX=0.5;exitY=0;exitDx=0;exitDy=0;" edge="1" parent="WIyWlLk6GJQsqaUBKTNV-1" source="kmN5Y0-LCo_o4AJHoNqN-3">
          <mxGeometry relative="1" as="geometry">
            <mxPoint x="635.2857142857147" y="390.0000000000002" as="targetPoint" />
          </mxGeometry>
        </mxCell>
        <mxCell id="kmN5Y0-LCo_o4AJHoNqN-7" style="edgeStyle=orthogonalEdgeStyle;rounded=0;orthogonalLoop=1;jettySize=auto;html=1;entryX=0.5;entryY=1;entryDx=0;entryDy=0;" edge="1" parent="WIyWlLk6GJQsqaUBKTNV-1" source="kmN5Y0-LCo_o4AJHoNqN-3" target="kmN5Y0-LCo_o4AJHoNqN-2">
          <mxGeometry relative="1" as="geometry" />
        </mxCell>
        <mxCell id="kmN5Y0-LCo_o4AJHoNqN-3" value="&lt;div&gt;Moradores&lt;/div&gt;" style="rounded=0;whiteSpace=wrap;html=1;" vertex="1" parent="WIyWlLk6GJQsqaUBKTNV-1">
          <mxGeometry x="515" y="370" width="250" height="140" as="geometry" />
        </mxCell>
        <mxCell id="kmN5Y0-LCo_o4AJHoNqN-6" style="edgeStyle=orthogonalEdgeStyle;rounded=0;orthogonalLoop=1;jettySize=auto;html=1;entryX=0.5;entryY=1;entryDx=0;entryDy=0;" edge="1" parent="WIyWlLk6GJQsqaUBKTNV-1" source="kmN5Y0-LCo_o4AJHoNqN-5" target="kmN5Y0-LCo_o4AJHoNqN-3">
          <mxGeometry relative="1" as="geometry" />
        </mxCell>
        <mxCell id="kmN5Y0-LCo_o4AJHoNqN-5" value="&lt;div&gt;Comentário&lt;/div&gt;" style="rounded=0;whiteSpace=wrap;html=1;" vertex="1" parent="WIyWlLk6GJQsqaUBKTNV-1">
          <mxGeometry x="520" y="680" width="240" height="130" as="geometry" />
        </mxCell>
        <mxCell id="kmN5Y0-LCo_o4AJHoNqN-9" style="edgeStyle=orthogonalEdgeStyle;rounded=0;orthogonalLoop=1;jettySize=auto;html=1;" edge="1" parent="WIyWlLk6GJQsqaUBKTNV-1" source="kmN5Y0-LCo_o4AJHoNqN-8" target="kmN5Y0-LCo_o4AJHoNqN-5">
          <mxGeometry relative="1" as="geometry" />
        </mxCell>
        <mxCell id="kmN5Y0-LCo_o4AJHoNqN-8" value="&lt;div&gt;Usuários&lt;/div&gt;" style="rounded=0;whiteSpace=wrap;html=1;" vertex="1" parent="WIyWlLk6GJQsqaUBKTNV-1">
          <mxGeometry x="80" y="680" width="240" height="130" as="geometry" />
        </mxCell>
      </root>
    </mxGraphModel>
  </diagram>
</mxfile>
